<?xml version="1.0" standalone="no"?>

<svg xmlns="http://www.w3.org/2000/svg" 
xmlns:xlink="http://www.w3.org/1999/xlink" width="500" zoomAndPan="magnify" 
viewBox="0 0 375 374.999991" height="500" preserveAspectRatio="xMidYMid meet" 
version="1.0"><rect x="-37.5" width="450" fill="#ffffff" y="-37.499999" height="449.999989" 
fill-opacity="1"/><rect x="-37.5" width="450" fill="#ffffff" y="-37.499999" height="449.999989" 
fill-opacity="1"/><rect x="-37.5" width="450" fill="#ffffff" y="-37.499999" height="449.999989" 
fill-opacity="1"/><path fill="#fcd8d4" d="M 227.820312 291.023438 C 226.566406 299.796875 225.097656 
307.410156 224.445312 315.089844 C 221.359375 351.574219 186.121094 371.109375 159.175781 373.535156 
C 143.054688 374.988281 127.425781 373.390625 111.8125 370.644531 C 100.527344 368.65625 90.925781 
362.425781 82.09375 355.328125 C 72.707031 347.785156 65.183594 338.558594 59.421875 327.976562 C 
51.203125 312.894531 52.253906 297.546875 59.835938 282.855469 C 63.855469 275.074219 69.851562 
268.304688 75.03125 261.136719 C 76.757812 258.746094 78.710938 256.523438 80.929688 253.769531 C 
79.226562 253.113281 78.261719 252.339844 77.554688 252.523438 C 61.679688 256.699219 47.871094 
250.695312 34.824219 243.085938 C 13.6875 230.765625 4.019531 211.101562 1.660156 187.398438 C 
1.1875 182.660156 1.550781 177.847656 1.359375 173.074219 C 0.832031 159.78125 5.050781 147.96875 
13.851562 138.304688 C 28.847656 121.835938 45.109375 106.984375 67.246094 100.261719 C 83.148438 
95.433594 98.601562 94.351562 113.871094 102.367188 C 117.921875 104.492188 122.375 105.847656 
127.820312 108.023438 C 127.097656 102.976562 126.785156 99.3125 126.035156 95.742188 C 122.019531 
76.695312 128.371094 60.125 138.15625 44.363281 C 150.242188 24.894531 167.523438 12.117188 189.597656 
6.621094 C 211.273438 1.226562 232.820312 0.00390625 252.332031 14.308594 C 261.925781 21.339844 
267.679688 30.53125 269.285156 42.324219 C 269.605469 44.683594 269.652344 47.144531 270.378906 
49.378906 C 275.378906 64.6875 273.730469 79.625 268.226562 94.414062 C 267.65625 95.949219 267.480469 
97.625 267.128906 99.179688 C 271.09375 102.597656 274.476562 99.992188 277.90625 99.078125 C 
297.390625 93.914062 316.621094 92.710938 335.996094 100.386719 C 354.539062 107.730469 364.964844 
121.296875 369.199219 140.164062 C 372.75 156 373.0625 171.859375 369.445312 187.847656 C 365.558594 
205.019531 355.9375 216.53125 338.824219 221.492188 C 336.039062 222.296875 333.359375 223.46875 
329.484375 224.894531 C 331.9375 226.4375 333.226562 227.554688 334.722656 228.140625 C 362.507812 
239.035156 374.023438 279.652344 356.371094 306.664062 C 353.523438 311.019531 348.859375 314.414062 
344.5 317.492188 C 338.429688 321.777344 332.058594 325.746094 325.453125 329.144531 C 312.457031 
335.832031 298.484375 338.199219 284.070312 335.800781 C 277.847656 334.765625 271.855469 332.1875 
265.835938 330.09375 C 249.429688 324.386719 240.636719 311.203125 233.277344 296.648438 C 232.667969 
295.4375 232.019531 294.234375 231.234375 293.136719 C 230.890625 292.648438 230.15625 292.4375 
227.820312 291.023438 Z M 227.820312 291.023438 " fill-opacity="1" fill-rule="nonzero"/>
<path fill="#f48c99" d="M 188.832031 115.523438 C 198.40625 116.527344 208.078125 116.988281 217.515625 118.722656 C 223.507812 119.824219 229.859375 121.78125 234.808594 125.167969 C 248.757812 134.710938 260.433594 146.785156 269.082031 161.414062 C 277.289062 175.296875 277.796875 190.507812 274.636719 205.789062 C 269.761719 229.355469 260.894531 251.109375 241.101562 266.289062 C 222.597656 280.476562 201.695312 285.238281 178.722656 279.546875 C 172.453125 277.992188 166.085938 276.820312 159.738281 275.617188 C 149.277344 273.640625 141.464844 267.011719 132.980469 261.261719 C 122.082031 253.878906 114.195312 244.121094 107.601562 233.089844 C 95.484375 212.804688 93.210938 191.574219 102.769531 169.714844 C 105.226562 164.101562 108.757812 158.78125 112.617188 153.988281 C 132.144531 129.730469 156.429688 114.722656 188.832031 115.523438 Z M 188.832031 115.523438 " fill-opacity="1" fill-rule="nonzero"/></svg>