<svg xmlns="http://www.w3.org/2000/svg" xmlns:xlink="http://www.w3.org/1999/xlink" width="500" zoomAndPan="magnify" viewBox="0 0 375 374.999991" height="500" preserveAspectRatio="xMidYMid meet" version="1.0"><defs><g/></defs><g fill="#4e4c67" fill-opacity="1"><g transform="translate(92.741336, 296.608139)"><g>
<path d="M 172.546875 -213.5 C 174.179688 -211.394531 175 -209.644531 175 -208.25 C 175 -206.613281 174.300781 -205.097656 172.90625 -203.703125 L 107.09375 -127.75 L 166.59375 -44.09375 C 167.757812 -42.46875 168.34375 -40.953125 168.34375 -39.546875 C 168.34375 -38.148438 167.410156 -36.519531 165.546875 -34.65625 L 129.15625 -2.796875 C 127.050781 -1.160156 125.179688 -0.695312 123.546875 -1.40625 C 121.453125 -1.40625 119.820312 -2.453125 118.65625 -4.546875 L 100.09375 -32.90625 C 94.257812 -42.46875 87.960938 -51.914062 81.203125 -61.25 C 74.671875 -70.351562 66.503906 -80.738281 56.703125 -92.40625 L 56.703125 -8.40625 C 56.703125 -3.738281 54.484375 -1.285156 50.046875 -1.046875 L 3.84375 0 C 1.75 0 0.00390625 -0.695312 -1.390625 -2.09375 C -2.796875 -3.5 -3.5 -5.25 -3.5 -7.34375 C -2.800781 -49.113281 -1.398438 -90.53125 0.703125 -131.59375 C 1.628906 -151.894531 2.445312 -166.710938 3.15625 -176.046875 L 3.5 -182.703125 L 3.84375 -182.703125 L 5.25 -184.09375 L 3.5 -184.796875 L 5.59375 -210.34375 L 7.34375 -236.25 C 7.582031 -240.6875 10.035156 -242.90625 14.703125 -242.90625 L 58.453125 -242.90625 C 60.546875 -242.90625 62.289062 -242.144531 63.6875 -240.625 C 65.09375 -239.101562 65.796875 -237.296875 65.796875 -235.203125 L 60.546875 -170.453125 L 131.59375 -243.953125 C 133.226562 -245.585938 134.976562 -246.40625 136.84375 -246.40625 C 138.71875 -246.40625 140.351562 -245.703125 141.75 -244.296875 Z M 147 -210.703125 C 147.9375 -210.703125 148.40625 -211.050781 148.40625 -211.75 L 147.703125 -212.453125 L 145.25 -212.453125 C 144.082031 -211.753906 144.195312 -211.171875 145.59375 -210.703125 Z M 133 -207.546875 C 132.0625 -207.546875 131.59375 -207.429688 131.59375 -207.203125 C 131.59375 -207.203125 131.242188 -206.96875 130.546875 -206.5 L 131.953125 -206.5 L 132.296875 -207.203125 Z M 125.296875 -205.453125 C 125.765625 -205.679688 125.53125 -206.03125 124.59375 -206.5 C 124.59375 -206.03125 124.710938 -205.796875 124.953125 -205.796875 C 125.179688 -205.328125 125.296875 -205.210938 125.296875 -205.453125 Z M 140.34375 -205.796875 L 140.703125 -206.15625 L 138.953125 -206.5 L 138.59375 -206.5 Z M 139.296875 -197.40625 C 139.992188 -197.40625 140.8125 -197.578125 141.75 -197.921875 C 142.6875 -198.273438 143.15625 -198.800781 143.15625 -199.5 C 143.15625 -199.726562 142.921875 -200.078125 142.453125 -200.546875 C 141.984375 -201.015625 141.398438 -201.25 140.703125 -201.25 C 138.128906 -201.25 136.84375 -200.664062 136.84375 -199.5 L 137.203125 -198.09375 C 138.128906 -197.632812 138.828125 -197.40625 139.296875 -197.40625 Z M 14.703125 -198.453125 L 14 -198.796875 C 13.0625 -198.796875 12.59375 -198.332031 12.59375 -197.40625 C 12.59375 -196.9375 12.710938 -196.703125 12.953125 -196.703125 L 14 -196 C 14 -196.226562 14.582031 -196.578125 15.75 -197.046875 L 15.75 -198.09375 Z M 141.046875 -192.15625 L 139.296875 -192.15625 C 138.828125 -191.6875 138.59375 -191.332031 138.59375 -191.09375 L 140.703125 -191.09375 L 141.75 -191.796875 Z M 147.34375 -186.203125 C 147.113281 -186.429688 146.765625 -186.546875 146.296875 -186.546875 C 145.597656 -186.546875 144.898438 -186.367188 144.203125 -186.015625 C 143.503906 -185.671875 143.035156 -185.382812 142.796875 -185.15625 L 142.796875 -184.09375 L 144.546875 -183.75 C 144.785156 -183.976562 145.367188 -184.09375 146.296875 -184.09375 C 147.234375 -184.09375 147.9375 -184.210938 148.40625 -184.453125 L 148.40625 -185.5 Z M 119.34375 -184.453125 C 120.050781 -184.453125 120.40625 -184.6875 120.40625 -185.15625 L 118.65625 -185.15625 C 118.1875 -185.15625 117.832031 -185.269531 117.59375 -185.5 C 117.59375 -184.800781 117.59375 -184.453125 117.59375 -184.453125 L 117.59375 -183.75 C 118.0625 -184.21875 118.644531 -184.453125 119.34375 -184.453125 Z M 87.5 -182.703125 C 87.5 -182.703125 87.265625 -182.9375 86.796875 -183.40625 C 86.566406 -184.101562 86.101562 -184.332031 85.40625 -184.09375 L 84.703125 -184.09375 C 85.171875 -182.695312 85.753906 -182 86.453125 -182 Z M 98.34375 -180.25 C 98.34375 -180.476562 98.578125 -180.828125 99.046875 -181.296875 C 99.515625 -181.765625 99.515625 -182 99.046875 -182 L 95.90625 -182 L 95.90625 -180.25 Z M 92.40625 -174.65625 C 91.9375 -174.65625 91.582031 -174.769531 91.34375 -175 L 90.296875 -175 L 89.953125 -174.296875 C 89.710938 -174.296875 89.59375 -174.0625 89.59375 -173.59375 C 89.59375 -173.132812 89.945312 -172.671875 90.65625 -172.203125 L 92.40625 -172.90625 Z M 85.046875 -164.84375 C 85.046875 -164.84375 84.988281 -164.898438 84.875 -165.015625 C 84.757812 -165.140625 84.703125 -165.203125 84.703125 -165.203125 L 83.65625 -164.5 L 84.703125 -163.09375 L 85.40625 -163.09375 L 86.09375 -163.453125 L 86.09375 -164.84375 Z M 101.84375 -135.453125 C 101.84375 -136.617188 101.144531 -137.203125 99.75 -137.203125 L 99.75 -135.453125 Z M 107.09375 -120.75 C 108.5 -121.21875 109.203125 -122.035156 109.203125 -123.203125 L 105.703125 -123.203125 Z M 38.5 -98 C 39.4375 -98 40.488281 -98.460938 41.65625 -99.390625 C 42.820312 -100.328125 43.40625 -101.265625 43.40625 -102.203125 C 43.40625 -102.671875 42.878906 -103.132812 41.828125 -103.59375 C 40.773438 -104.0625 39.898438 -104.296875 39.203125 -104.296875 C 38.503906 -104.296875 37.628906 -103.828125 36.578125 -102.890625 C 35.523438 -101.960938 35 -101.148438 35 -100.453125 L 35.703125 -99.046875 C 36.171875 -98.347656 37.101562 -98 38.5 -98 Z M 98.703125 -99.40625 C 100.097656 -99.863281 100.796875 -100.675781 100.796875 -101.84375 L 99.40625 -101.84375 L 97.65625 -101.5 Z M 102.203125 -91 C 101.503906 -90.300781 101.503906 -89.601562 102.203125 -88.90625 L 105 -90.296875 L 104.296875 -91.703125 Z M 106.40625 -91.703125 L 105 -91 L 106.40625 -89.953125 L 107.796875 -90.296875 Z M 117.59375 -82.953125 C 117.363281 -82.710938 117.25 -82.476562 117.25 -82.25 C 117.25 -82.019531 117.363281 -81.785156 117.59375 -81.546875 C 117.832031 -80.617188 118.769531 -80.15625 120.40625 -80.15625 C 121.101562 -80.15625 121.742188 -80.328125 122.328125 -80.671875 C 122.910156 -81.023438 123.082031 -81.550781 122.84375 -82.25 L 122.5 -82.59375 L 121.796875 -82.953125 L 121.09375 -83.296875 C 121.09375 -83.535156 120.742188 -83.769531 120.046875 -84 L 117.953125 -83.296875 Z M 119.34375 -70.703125 L 120.75 -71.046875 L 119.34375 -72.796875 L 117.953125 -72.09375 Z M 35.703125 -70.703125 L 35 -68.953125 L 36.40625 -68.953125 C 36.632812 -68.710938 37.097656 -68.59375 37.796875 -68.59375 L 37.796875 -70.703125 Z M 130.546875 -64.40625 C 129.148438 -64.40625 128.453125 -63.585938 128.453125 -61.953125 L 129.5 -61.953125 C 130.195312 -61.953125 130.71875 -62.179688 131.0625 -62.640625 C 131.414062 -63.109375 131.242188 -63.695312 130.546875 -64.40625 Z M 95.203125 -63 L 94.5 -63 L 94.84375 -61.953125 L 95.546875 -61.953125 Z M 133 -61.953125 C 132.769531 -61.710938 132.882812 -61.128906 133.34375 -60.203125 L 135.796875 -61.25 C 135.796875 -62.1875 135.332031 -62.769531 134.40625 -63 Z M 122.5 -58.796875 L 120.046875 -55.296875 C 121.210938 -55.296875 121.914062 -54.945312 122.15625 -54.25 C 122.382812 -54.476562 122.5 -54.769531 122.5 -55.125 C 122.5 -55.476562 122.613281 -55.65625 122.84375 -55.65625 L 122.84375 -56 C 122.84375 -56 122.898438 -56.054688 123.015625 -56.171875 C 123.140625 -56.285156 123.203125 -56.34375 123.203125 -56.34375 C 123.671875 -56.582031 123.90625 -56.816406 123.90625 -57.046875 C 123.90625 -57.285156 124.019531 -57.519531 124.25 -57.75 L 123.90625 -58.09375 Z M 11.546875 -45.15625 C 11.546875 -45.15625 11.488281 -45.210938 11.375 -45.328125 C 11.257812 -45.441406 11.203125 -45.5 11.203125 -45.5 C 10.734375 -45.5 10.5 -45.265625 10.5 -44.796875 C 10.5 -44.328125 10.734375 -44.09375 11.203125 -44.09375 Z M 153.296875 -43.40625 C 152.828125 -43.40625 152.648438 -43.113281 152.765625 -42.53125 C 152.890625 -41.945312 153.1875 -41.769531 153.65625 -42 L 154 -42.703125 C 154 -43.171875 153.765625 -43.40625 153.296875 -43.40625 Z M 119.703125 -42 L 119.34375 -42 L 120.046875 -40.953125 L 120.75 -41.296875 Z M 119.703125 -42 "/></g></g></g><g fill="#985f6f" fill-opacity="1"><g transform="translate(116.962029, 306.200491)"><g><path d="M 172.546875 -213.5 C 174.179688 -211.394531 175 -209.644531 175 -208.25 C 175 -206.613281 174.300781 -205.097656 172.90625 -203.703125 L 107.09375 -127.75 L 166.59375 -44.09375 C 167.757812 -42.46875 168.34375 -40.953125 168.34375 -39.546875 C 168.34375 -38.148438 167.410156 -36.519531 165.546875 -34.65625 L 129.15625 -2.796875 C 127.050781 -1.160156 125.179688 -0.695312 123.546875 -1.40625 C 121.453125 -1.40625 119.820312 -2.453125 118.65625 -4.546875 L 100.09375 -32.90625 C 94.257812 -42.46875 87.960938 -51.914062 81.203125 -61.25 C 74.671875 -70.351562 66.503906 -80.738281 56.703125 -92.40625 L 56.703125 -8.40625 C 56.703125 -3.738281 54.484375 -1.285156 50.046875 -1.046875 L 3.84375 0 C 1.75 0 0.00390625 -0.695312 -1.390625 -2.09375 C -2.796875 -3.5 -3.5 -5.25 -3.5 -7.34375 C -2.800781 -49.113281 -1.398438 -90.53125 0.703125 -131.59375 C 1.628906 -151.894531 2.445312 -166.710938 3.15625 -176.046875 L 3.5 -182.703125 L 3.84375 -182.703125 L 5.25 -184.09375 L 3.5 -184.796875 L 5.59375 -210.34375 L 7.34375 -236.25 C 7.582031 -240.6875 10.035156 -242.90625 14.703125 -242.90625 L 58.453125 -242.90625 C 60.546875 -242.90625 62.289062 -242.144531 63.6875 -240.625 C 65.09375 -239.101562 65.796875 -237.296875 65.796875 -235.203125 L 60.546875 -170.453125 L 131.59375 -243.953125 C 133.226562 -245.585938 134.976562 -246.40625 136.84375 -246.40625 C 138.71875 -246.40625 140.351562 -245.703125 141.75 -244.296875 Z M 147 -210.703125 C 147.9375 -210.703125 148.40625 -211.050781 148.40625 -211.75 L 147.703125 -212.453125 L 145.25 -212.453125 C 144.082031 -211.753906 144.195312 -211.171875 145.59375 -210.703125 Z M 133 -207.546875 C 132.0625 -207.546875 131.59375 -207.429688 131.59375 -207.203125 C 131.59375 -207.203125 131.242188 -206.96875 130.546875 -206.5 L 131.953125 -206.5 L 132.296875 -207.203125 Z M 125.296875 -205.453125 C 125.765625 -205.679688 125.53125 -206.03125 124.59375 -206.5 C 124.59375 -206.03125 124.710938 -205.796875 124.953125 -205.796875 C 125.179688 -205.328125 125.296875 -205.210938 125.296875 -205.453125 Z M 140.34375 -205.796875 L 140.703125 -206.15625 L 138.953125 -206.5 L 138.59375 -206.5 Z M 139.296875 -197.40625 C 139.992188 -197.40625 140.8125 -197.578125 141.75 -197.921875 C 142.6875 -198.273438 143.15625 -198.800781 143.15625 -199.5 C 143.15625 -199.726562 142.921875 -200.078125 142.453125 -200.546875 C 141.984375 -201.015625 141.398438 -201.25 140.703125 -201.25 C 138.128906 -201.25 136.84375 -200.664062 136.84375 -199.5 L 137.203125 -198.09375 C 138.128906 -197.632812 138.828125 -197.40625 139.296875 -197.40625 Z M 14.703125 -198.453125 L 14 -198.796875 C 13.0625 -198.796875 12.59375 -198.332031 12.59375 -197.40625 C 12.59375 -196.9375 12.710938 -196.703125 12.953125 -196.703125 L 14 -196 C 14 -196.226562 14.582031 -196.578125 15.75 -197.046875 L 15.75 -198.09375 Z M 141.046875 -192.15625 L 139.296875 -192.15625 C 138.828125 -191.6875 138.59375 -191.332031 138.59375 -191.09375 L 140.703125 -191.09375 L 141.75 -191.796875 Z M 147.34375 -186.203125 C 147.113281 -186.429688 146.765625 -186.546875 146.296875 -186.546875 C 145.597656 -186.546875 144.898438 -186.367188 144.203125 -186.015625 C 143.503906 -185.671875 143.035156 -185.382812 142.796875 -185.15625 L 142.796875 -184.09375 L 144.546875 -183.75 C 144.785156 -183.976562 145.367188 -184.09375 146.296875 -184.09375 C 147.234375 -184.09375 147.9375 -184.210938 148.40625 -184.453125 L 148.40625 -185.5 Z M 119.34375 -184.453125 C 120.050781 -184.453125 120.40625 -184.6875 120.40625 -185.15625 L 118.65625 -185.15625 C 118.1875 -185.15625 117.832031 -185.269531 117.59375 -185.5 C 117.59375 -184.800781 117.59375 -184.453125 117.59375 -184.453125 L 117.59375 -183.75 C 118.0625 -184.21875 118.644531 -184.453125 119.34375 -184.453125 Z M 87.5 -182.703125 C 87.5 -182.703125 87.265625 -182.9375 86.796875 -183.40625 C 86.566406 -184.101562 86.101562 -184.332031 85.40625 -184.09375 L 84.703125 -184.09375 C 85.171875 -182.695312 85.753906 -182 86.453125 -182 Z M 98.34375 -180.25 C 98.34375 -180.476562 98.578125 -180.828125 99.046875 -181.296875 C 99.515625 -181.765625 99.515625 -182 99.046875 -182 L 95.90625 -182 L 95.90625 -180.25 Z M 92.40625 -174.65625 C 91.9375 -174.65625 91.582031 -174.769531 91.34375 -175 L 90.296875 -175 L 89.953125 -174.296875 C 89.710938 -174.296875 89.59375 -174.0625 89.59375 -173.59375 C 89.59375 -173.132812 89.945312 -172.671875 90.65625 -172.203125 L 92.40625 -172.90625 Z M 85.046875 -164.84375 C 85.046875 -164.84375 84.988281 -164.898438 84.875 -165.015625 C 84.757812 -165.140625 84.703125 -165.203125 84.703125 -165.203125 L 83.65625 -164.5 L 84.703125 -163.09375 L 85.40625 -163.09375 L 86.09375 -163.453125 L 86.09375 -164.84375 Z M 101.84375 -135.453125 C 101.84375 -136.617188 101.144531 -137.203125 99.75 -137.203125 L 99.75 -135.453125 Z M 107.09375 -120.75 C 108.5 -121.21875 109.203125 -122.035156 109.203125 -123.203125 L 105.703125 -123.203125 Z M 38.5 -98 C 39.4375 -98 40.488281 -98.460938 41.65625 -99.390625 C 42.820312 -100.328125 43.40625 -101.265625 43.40625 -102.203125 C 43.40625 -102.671875 42.878906 -103.132812 41.828125 -103.59375 C 40.773438 -104.0625 39.898438 -104.296875 39.203125 -104.296875 C 38.503906 -104.296875 37.628906 -103.828125 36.578125 -102.890625 C 35.523438 -101.960938 35 -101.148438 35 -100.453125 L 35.703125 -99.046875 C 36.171875 -98.347656 37.101562 -98 38.5 -98 Z M 98.703125 -99.40625 C 100.097656 -99.863281 100.796875 -100.675781 100.796875 -101.84375 L 99.40625 -101.84375 L 97.65625 -101.5 Z M 102.203125 -91 C 101.503906 -90.300781 101.503906 -89.601562 102.203125 -88.90625 L 105 -90.296875 L 104.296875 -91.703125 Z M 106.40625 -91.703125 L 105 -91 L 106.40625 -89.953125 L 107.796875 -90.296875 Z M 117.59375 -82.953125 C 117.363281 -82.710938 117.25 -82.476562 117.25 -82.25 C 117.25 -82.019531 117.363281 -81.785156 117.59375 -81.546875 C 117.832031 -80.617188 118.769531 -80.15625 120.40625 -80.15625 C 121.101562 -80.15625 121.742188 -80.328125 122.328125 -80.671875 C 122.910156 -81.023438 123.082031 -81.550781 122.84375 -82.25 L 122.5 -82.59375 L 121.796875 -82.953125 L 121.09375 -83.296875 C 121.09375 -83.535156 120.742188 -83.769531 120.046875 -84 L 117.953125 -83.296875 Z M 119.34375 -70.703125 L 120.75 -71.046875 L 119.34375 -72.796875 L 117.953125 -72.09375 Z M 35.703125 -70.703125 L 35 -68.953125 L 36.40625 -68.953125 C 36.632812 -68.710938 37.097656 -68.59375 37.796875 -68.59375 L 37.796875 -70.703125 Z M 130.546875 -64.40625 C 129.148438 -64.40625 128.453125 -63.585938 128.453125 -61.953125 L 129.5 -61.953125 C 130.195312 -61.953125 130.71875 -62.179688 131.0625 -62.640625 C 131.414062 -63.109375 131.242188 -63.695312 130.546875 -64.40625 Z M 95.203125 -63 L 94.5 -63 L 94.84375 -61.953125 L 95.546875 -61.953125 Z M 133 -61.953125 C 132.769531 -61.710938 132.882812 -61.128906 133.34375 -60.203125 L 135.796875 -61.25 C 135.796875 -62.1875 135.332031 -62.769531 134.40625 -63 Z M 122.5 -58.796875 L 120.046875 -55.296875 C 121.210938 -55.296875 121.914062 -54.945312 122.15625 -54.25 C 122.382812 -54.476562 122.5 -54.769531 122.5 -55.125 C 122.5 -55.476562 122.613281 -55.65625 122.84375 -55.65625 L 122.84375 -56 C 122.84375 -56 122.898438 -56.054688 123.015625 -56.171875 C 123.140625 -56.285156 123.203125 -56.34375 123.203125 -56.34375 C 123.671875 -56.582031 123.90625 -56.816406 123.90625 -57.046875 C 123.90625 -57.285156 124.019531 -57.519531 124.25 -57.75 L 123.90625 -58.09375 Z M 11.546875 -45.15625 C 11.546875 -45.15625 11.488281 -45.210938 11.375 -45.328125 C 11.257812 -45.441406 11.203125 -45.5 11.203125 -45.5 C 10.734375 -45.5 10.5 -45.265625 10.5 -44.796875 C 10.5 -44.328125 10.734375 -44.09375 11.203125 -44.09375 Z M 153.296875 -43.40625 C 152.828125 -43.40625 152.648438 -43.113281 152.765625 -42.53125 C 152.890625 -41.945312 153.1875 -41.769531 153.65625 -42 L 154 -42.703125 C 154 -43.171875 153.765625 -43.40625 153.296875 -43.40625 Z M 119.703125 -42 L 119.34375 -42 L 120.046875 -40.953125 L 120.75 -41.296875 Z M 119.703125 -42 "/></g></g></g></svg>